<svg xmlns="http://www.w3.org/2000/svg" viewBox="0 0 444 444"><defs><style>.cls-1{fill:#f2f1df;}.cls-2{fill:#eae8cc;}.cls-3,.cls-9{fill:#2b6889;}.cls-4{fill:#103644;}.cls-11,.cls-5{fill:none;}.cls-5{stroke:#3d84a3;stroke-width:8px;}.cls-11,.cls-5,.cls-9{stroke-miterlimit:10;}.cls-6{fill:#ddb612;}.cls-7{fill:#164e66;}.cls-8{fill:#2a5666;}.cls-9{stroke:#d4b612;}.cls-11,.cls-9{stroke-width:2px;}.cls-10{fill:#3d84a3;}.cls-11{stroke:#ddb612;}</style></defs><title>Asset 1</title><g id="Layer_2" data-name="Layer 2"><g id="Layer_1-2" data-name="Layer 1"><rect class="cls-1" width="444" height="444"/><circle class="cls-2" cx="220.5" cy="222.5" r="191.5"/><rect class="cls-3" x="123" y="255" width="55" height="60" rx="11.87"/><rect class="cls-3" x="264" y="255" width="55" height="60" rx="11.87"/><rect class="cls-4" x="256" y="113" width="24" height="34" rx="6.97" transform="translate(31.19 -50.68) rotate(11.47)"/><rect class="cls-4" x="164" y="113" width="24" height="34" rx="6.97" transform="translate(-29.67 55.33) rotate(-16.5)"/><circle class="cls-5" cx="222.5" cy="133.5" r="19"/><rect class="cls-6" x="123" y="266" width="12" height="4"/><rect class="cls-6" x="307" y="266" width="12" height="4"/><path class="cls-7" d="M283.24,338H159.76c-10.58,0-21-7.33-22.59-16.49-8.82-53.41-1.67-109.61,17.92-163,3.52-9.16,13.06-16.49,20.77-16.49h91.28c7.71,0,17.25,7.33,20.77,16.49,19.59,53.41,26.74,109.61,17.92,163C304.24,330.67,293.82,338,283.24,338Z"/><path class="cls-8" d="M270.74,324H170.26c-10.57,0-20.77-7.32-21.7-16.54-2.86-30.56,2.21-62.36,13.65-92.92,3.64-9.22,13.49-16.54,21.15-16.54h74.28c7.66,0,17.51,7.32,21.15,16.54,11.44,30.56,16.51,62.36,13.65,92.92C291.52,316.68,281.31,324,270.74,324Z"/><rect class="cls-4" x="150" y="138" width="142" height="49" rx="9.71"/><rect class="cls-3" x="150" y="136" width="142" height="49" rx="9.71"/><rect class="cls-9" x="165" y="268" width="112" height="40" rx="6.94"/><path class="cls-6" d="M166.22,270.16c-.59-1.14-5.08,0-7.41,1.21s-1.63,2-1,3.17.85,2.18,3.18,1S166.81,271.3,166.22,270.16Zm-7.75,4a2,2,0,1,1,2.53.57A1.85,1.85,0,0,1,158.47,274.17Z"/><rect class="cls-10" x="246" y="171" width="14" height="51" rx="3.48"/><circle class="cls-4" cx="253" cy="185" r="2"/><circle class="cls-4" cx="253" cy="198" r="2"/><circle class="cls-4" cx="253" cy="210" r="2"/><rect class="cls-11" x="244" y="192" width="18" height="12"/><path class="cls-6" d="M254,200c0,2.21-.45,6-1,6s-1-3.79-1-6,.45-2,1-2S254,197.79,254,200Z"/><rect class="cls-10" x="180" y="171" width="14" height="51" rx="3.48"/><circle class="cls-4" cx="187" cy="185" r="2"/><circle class="cls-4" cx="187" cy="198" r="2"/><circle class="cls-4" cx="187" cy="210" r="2"/><rect class="cls-11" x="178" y="192" width="18" height="12"/><path class="cls-6" d="M188,200c0,2.21-.45,6-1,6s-1-3.79-1-6,.45-2,1-2S188,197.79,188,200Z"/></g></g></svg>