<svg xmlns="http://www.w3.org/2000/svg" viewBox="0 0 443 443"><defs><style>.cls-1{fill:#92f1ff;}.cls-2{fill:#dff8ff;}.cls-3{fill:#fff;}.cls-4,.cls-6{stroke:#000;stroke-miterlimit:10;stroke-width:9px;}.cls-5{fill:#f16a24;}.cls-6{fill:none;}</style></defs><title>Asset 1</title><g id="Layer_2" data-name="Layer 2"><g id="Layer_1-2" data-name="Layer 1"><path class="cls-1" d="M443,221.5a223,223,0,0,1-1.86,28.83.5.5,0,0,1,0,.12,219.11,219.11,0,0,1-6.6,31.95l0,.12C408,375.18,322.67,443,221.5,443c-99.7,0-184-65.87-211.8-156.47A220.46,220.46,0,0,1,2.83,257c-.13-.8-.25-1.6-.37-2.4A223,223,0,0,1,0,221.5v-.58c0-1.31,0-2.62.05-3.92A221.48,221.48,0,0,1,390.22,78c1,1.21,2.07,2.45,3.08,3.69a220.47,220.47,0,0,1,21.4,31.42c.73,1.29,1.45,2.58,2.14,3.89a218.77,218.77,0,0,1,12.52,27.81A221.05,221.05,0,0,1,443,221.5Z"/><path class="cls-2" d="M115,100.15v.17a16,16,0,0,1-15.84,16l-73,.77a222.78,222.78,0,0,1,21-32.23l51.68-.54A16,16,0,0,1,115,100.15Z"/><path class="cls-2" d="M73,204.15v.17a16,16,0,0,1-15.84,16L50,220.4l-50,.52c0-1.31,0-2.62.05-3.92a220.62,220.62,0,0,1,2.34-28.11l54.44-.57A16,16,0,0,1,73,204.15Z"/><path class="cls-2" d="M140,269.15v.17a16,16,0,0,1-15.84,16L9.7,286.53A220.46,220.46,0,0,1,2.83,257c-.13-.8-.25-1.6-.37-2.4L50,254.1l73.83-.78A16,16,0,0,1,140,269.15Z"/><path class="cls-2" d="M393.3,81.69l-75.3.79-18.83.2A16,16,0,0,1,283,66.85v-.17a16,16,0,0,1,15.84-16L361.7,50a221.11,221.11,0,0,1,28.52,28C391.27,79.21,392.29,80.45,393.3,81.69Z"/><path class="cls-2" d="M429.36,144.81a15.21,15.21,0,0,1-2.15.17l-161,1.7A16,16,0,0,1,250,130.85v-.17a16,16,0,0,1,15.84-16l52.16-.55,96.7-1c.73,1.29,1.45,2.58,2.14,3.89A218.77,218.77,0,0,1,429.36,144.81Z"/><rect class="cls-2" x="141" y="51.51" width="63.96" height="32" rx="16" transform="translate(-0.7 1.82) rotate(-0.6)"/><rect class="cls-2" x="274" y="205.37" width="90" height="32" rx="16" transform="translate(-2.31 3.37) rotate(-0.6)"/><path class="cls-3" d="M441.12,250.45a219.11,219.11,0,0,1-6.6,31.95l0,.12-15.32.16a15.08,15.08,0,0,1-1.91-.1A16,16,0,0,1,403,266.85v-.17a16,16,0,0,1,15.84-16Z"/><path class="cls-2" d="M441.14,250.33a.5.5,0,0,1,0,.12,219.11,219.11,0,0,1-6.6,31.95l-17.26.18-9.09.1A16,16,0,0,1,392,266.85v-.17a16,16,0,0,1,15.84-16Z"/><path class="cls-2" d="M416.84,117H318V78h72.22c1,1.21,2.07,2.45,3.08,3.69a220.47,220.47,0,0,1,21.4,31.42C415.43,114.4,416.15,115.69,416.84,117Z"/><path class="cls-2" d="M50,217v40H2.83c-.13-.8-.25-1.6-.37-2.4A223,223,0,0,1,0,221.5v-.58c0-1.31,0-2.62.05-3.92Z"/><circle class="cls-1" cx="50.5" cy="237.5" r="16.5"/><circle class="cls-1" cx="316.5" cy="98.5" r="15.5"/><path class="cls-4" d="M311,210.5a88.61,88.61,0,1,1-25.45-62A88.1,88.1,0,0,1,311,210.5Z"/><circle class="cls-5" cx="222.5" cy="210.5" r="74.5"/><path class="cls-6" d="M311,210.5a88.1,88.1,0,0,1-22.9,59.33A68.19,68.19,0,0,1,249.65,213q-.15-2.24-.15-4.5t.15-4.5a68.15,68.15,0,0,1,35.9-55.54A88.16,88.16,0,0,1,311,210.5Z"/><path class="cls-6" d="M199.5,208.5q0,2.26-.15,4.5a67.86,67.86,0,0,1-28.64,51.05,66.65,66.65,0,0,1-12.63,7.06,88.33,88.33,0,0,1,2.72-124A68.22,68.22,0,0,1,199.35,204Q199.5,206.24,199.5,208.5Z"/><rect x="217" y="129" width="10" height="163"/><rect x="219" y="127" width="9" height="163" transform="translate(432 -15) rotate(90)"/><rect x="215" y="339" width="13" height="52" rx="6.5"/><rect x="267" y="322" width="13" height="34" rx="6.5"/><rect x="160" y="322" width="13" height="34" rx="6.5"/></g></g></svg>