<svg xmlns="http://www.w3.org/2000/svg" viewBox="0 0 426.02 278.28"><defs><style>.cls-1{fill:#007f7d;}.cls-2{fill:#00565b;}.cls-3{fill:#12b4b0;}.cls-4{fill:#008a88;opacity:0.58;}.cls-5{fill:#faffdc;}.cls-6{fill:#fff;}</style></defs><title>Asset 19</title><g id="Layer_2" data-name="Layer 2"><g id="Layer_1-2" data-name="Layer 1"><rect class="cls-1" x="354.69" y="127.25" width="111.93" height="30.74" rx="9.43" transform="translate(268.03 553.28) rotate(-90)"/><rect class="cls-1" x="50" y="256.97" width="310.66" height="21.31" rx="9.43"/><rect class="cls-2" x="107.38" width="195.9" height="35.25" rx="9.02"/><rect class="cls-3" x="80.33" y="-62.7" width="250" height="410.66" rx="63.93" transform="translate(347.95 -62.7) rotate(90)"/><rect class="cls-4" x="80.33" y="-62.7" width="250" height="410.66" rx="63.93" transform="translate(347.95 -62.7) rotate(90)"/><rect class="cls-3" x="92.33" y="-50.7" width="226" height="386.66" rx="51.93" transform="translate(347.95 -62.7) rotate(90)"/><rect class="cls-2" x="116.33" y="-26.7" width="178" height="338.66" rx="27.93" transform="translate(347.95 -62.7) rotate(90)"/><rect class="cls-5" x="50" y="67.62" width="310.66" height="150" rx="13.93"/><rect class="cls-2" x="217.21" y="72.54" width="65.57" height="140.16" rx="9.84"/><rect class="cls-2" x="287.74" y="72.54" width="65.57" height="140.16" rx="9.84"/><rect class="cls-2" x="59.02" y="72.54" width="62.3" height="140.16" rx="9.84"/><rect class="cls-2" x="126.26" y="72.54" width="65.57" height="140.16" rx="9.84"/><path class="cls-6" d="M88.26,187.76v-71.5H77.17c-2.14,0-3.4-1.44-3.4-3.88v-3.44c0-2.42,1.26-3.86,3.4-4,8.06-.43,11.84-3,14.49-9.46.88-2,2.14-3,4-3h3c2.14,0,3.4,1.43,3.4,3.87v91.42c0,3.15-1.64,5-4.41,5h-5C89.89,192.78,88.26,190.91,88.26,187.76Z"/><path class="cls-6" d="M138.43,169V116.26c0-16.06,7.43-25.23,21-25.23s21,9.17,21,25.23V169c0,16-7.43,25.22-21,25.22S138.43,185,138.43,169Zm28.21,1V115.26c0-7.17-2.77-9.9-7.18-9.9s-7.18,2.73-7.18,9.9V170c0,7.17,2.77,9.9,7.18,9.9S166.64,177.16,166.64,170Z"/><path class="cls-6" d="M229.16,169.28v-3.15c0-3.16,1.64-5,4.41-5h4.28c2.77,0,4.41,1.58,4.41,4.45V170c0,7.17,2.77,9.9,7.18,9.9s7.18-2.44,7.18-11.33v-8.17c0-9.31-2.77-12.76-9.07-12.76h-.25c-2.77,0-4.41-1.85-4.41-5v-4.31c0-3.15,1.64-5,4.41-5h.63c5.16,0,8.31-2.58,8.31-10.61v-7.3c0-7.17-2.89-10-6.92-10s-6.68,2.73-6.68,9.32v1.58c0,3.15-1.64,5-4.41,5H234c-2.77,0-4.41-1.87-4.41-5,0-16.34,7.05-25.23,20.28-25.23s20.28,8.74,20.28,24.8v3.58c0,10.75-3,17.34-9.83,20.21v.28c7.44,3.15,10.21,10.46,10.21,20.64v8.88c0,16.05-7.06,24.79-20.66,24.79S229.16,185.32,229.16,169.28Z"/><path class="cls-6" d="M299.74,169V116.26c0-16.06,7.43-25.23,21-25.23s21,9.17,21,25.23V169c0,16-7.43,25.22-21,25.22S299.74,185,299.74,169ZM328,170V115.26c0-7.17-2.77-9.9-7.18-9.9s-7.18,2.73-7.18,9.9V170c0,7.17,2.77,9.9,7.18,9.9S328,177.16,328,170Z"/><rect class="cls-2" x="202.87" y="58.64" width="4.92" height="167.97"/><rect class="cls-2" x="224.18" y="135.31" width="51.64" height="7.31"/><rect class="cls-2" x="294.95" y="135.31" width="51.64" height="7.31"/><rect class="cls-2" x="133.23" y="135.31" width="51.64" height="7.31"/><rect class="cls-2" x="62.12" y="135.31" width="51.64" height="7.31"/></g></g></svg>